<?xml version="1.0" standalone="no"?><!DOCTYPE svg PUBLIC "-//W3C//DTD SVG 1.1//EN" "http://www.w3.org/Graphics/SVG/1.1/DTD/svg11.dtd"><svg t="1698656398937" class="icon" viewBox="0 0 1024 1024" version="1.1" xmlns="http://www.w3.org/2000/svg" p-id="9426" xmlns:xlink="http://www.w3.org/1999/xlink" width="200" height="200"><path d="M682.688 512h42.688v42.688h-42.688z" p-id="9427"></path><path d="M725.312 512H768v42.688h-42.688zM768 469.312h42.688V512H768z" p-id="9428"></path><path d="M768 512h42.688v42.688H768zM682.688 554.688h42.688v42.688h-42.688z" fill="#388F39" p-id="9429"></path><path d="M682.688 597.312h42.688V640h-42.688z" fill="#FDCD00" p-id="9430"></path><path d="M725.312 554.688H768v42.688h-42.688z" fill="#388F39" p-id="9431"></path><path d="M725.312 597.312H768V640h-42.688zM682.688 640h42.688v42.688h-42.688z" fill="#388F39" p-id="9432"></path><path d="M725.312 640H768v42.688h-42.688z" fill="#FDCD00" p-id="9433"></path><path d="M768 554.688h42.688v42.688H768z" fill="#388F39" p-id="9434"></path><path d="M768 597.312h42.688V640H768zM768 640h42.688v42.688H768z" fill="#388F39" p-id="9435"></path><path d="M682.688 682.688h42.688v42.688h-42.688z" fill="#FDCD00" p-id="9436"></path><path d="M725.312 682.688H768v42.688h-42.688zM768 682.688h42.688v42.688H768z" fill="#FDCD00" p-id="9437"></path><path d="M682.688 725.312h42.688V768h-42.688z" fill="#388F39" p-id="9438"></path><path d="M725.312 725.312H768V768h-42.688z" fill="#FDCD00" p-id="9439"></path><path d="M725.312 768H768v42.688h-42.688z" p-id="9440"></path><path d="M768 725.312h42.688V768H768zM768 768h42.688v42.688H768z" fill="#388F39" p-id="9441"></path><path d="M768 810.688h42.688v42.688H768zM810.688 469.312h42.688V512h-42.688z" p-id="9442"></path><path d="M810.688 512h42.688v42.688h-42.688zM810.688 554.688h42.688v42.688h-42.688z" fill="#388F39" p-id="9443"></path><path d="M810.688 597.312h42.688V640h-42.688z" fill="#388F39" p-id="9444"></path><path d="M810.688 640h42.688v42.688h-42.688z" fill="#FDCD00" p-id="9445"></path><path d="M810.688 682.688h42.688v42.688h-42.688z" fill="#388F39" p-id="9446"></path><path d="M810.688 725.312h42.688V768h-42.688zM810.688 768h42.688v42.688h-42.688z" fill="#388F39" p-id="9447"></path><path d="M810.688 810.688h42.688v42.688h-42.688z" p-id="9448"></path><path d="M853.312 469.312H896V512h-42.688zM853.312 512H896v42.688h-42.688zM853.312 554.688H896v42.688h-42.688z" fill="#388F39" p-id="9449"></path><path d="M853.312 597.312H896V640h-42.688zM896 554.688h42.688v42.688H896z" fill="#FDCD00" p-id="9450"></path><path d="M896 597.312h42.688V640H896zM853.312 640H896v42.688h-42.688zM896 640h42.688v42.688H896zM853.312 682.688H896v42.688h-42.688zM896 682.688h42.688v42.688H896zM938.688 682.688h42.688v42.688h-42.688z" fill="#388F39" p-id="9451"></path><path d="M853.312 725.312H896V768h-42.688zM853.312 768H896v42.688h-42.688zM896 725.312h42.688V768H896z" fill="#388F39" p-id="9452"></path><path d="M170.688 384h42.688v42.688h-42.688z" p-id="9453"></path><path d="M170.688 426.688h42.688v42.688h-42.688z" fill="#388F39" p-id="9454"></path><path d="M213.312 469.312H256V512h-42.688z" fill="#388F39" p-id="9455"></path><path d="M298.688 469.312h42.688V512h-42.688z" p-id="9456"></path><path d="M213.312 512H256v42.688h-42.688zM298.688 512h42.688v42.688h-42.688z" fill="#388F39" p-id="9457"></path><path d="M384 512h42.688v42.688H384z" p-id="9458"></path><path d="M128 554.688h42.688v42.688H128zM213.312 554.688H256v42.688h-42.688zM298.688 554.688h42.688v42.688h-42.688zM384 554.688h42.688v42.688H384z" fill="#388F39" p-id="9459"></path><path d="M426.688 554.688h42.688v42.688h-42.688z" p-id="9460"></path><path d="M128 597.312h42.688V640H128z" fill="#FDCD00" p-id="9461"></path><path d="M213.312 597.312H256V640h-42.688zM298.688 597.312h42.688V640h-42.688z" fill="#388F39" p-id="9462"></path><path d="M426.688 597.312h42.688V640h-42.688z" fill="#FDCD00" p-id="9463"></path><path d="M512 597.312h42.688V640H512z" fill="#FFFFFF" p-id="9464"></path><path d="M85.312 640H128v42.688h-42.688zM128 640h42.688v42.688H128zM170.688 640h42.688v42.688h-42.688z" fill="#388F39" p-id="9465"></path><path d="M213.312 640H256v42.688h-42.688z" fill="#FDCD00" p-id="9466"></path><path d="M256 640h42.688v42.688H256z" fill="#388F39" p-id="9467"></path><path d="M298.688 640h42.688v42.688h-42.688z" fill="#FDCD00" p-id="9468"></path><path d="M341.312 640H384v42.688h-42.688zM384 640h42.688v42.688H384zM426.688 640h42.688v42.688h-42.688z" fill="#388F39" p-id="9469"></path><path d="M469.312 640H512v42.688h-42.688z" fill="#FDCD00" p-id="9470"></path><path d="M512 640h42.688v42.688H512zM597.312 554.688H640v42.688h-42.688z" p-id="9471"></path><path d="M597.312 597.312H640V640h-42.688zM554.688 640h42.688v42.688h-42.688z" fill="#FDCD00" p-id="9472"></path><path d="M597.312 640H640v42.688h-42.688zM42.688 682.688h42.688v42.688H42.688z" fill="#388F39" p-id="9473"></path><path d="M85.312 682.688H128v42.688h-42.688zM128 682.688h42.688v42.688H128zM170.688 682.688h42.688v42.688h-42.688z" fill="#388F39" p-id="9474"></path><path d="M213.312 682.688H256v42.688h-42.688z" fill="#388F39" p-id="9475"></path><path d="M256 682.688h42.688v42.688H256zM298.688 682.688h42.688v42.688h-42.688z" fill="#FDCD00" p-id="9476"></path><path d="M341.312 682.688H384v42.688h-42.688zM384 682.688h42.688v42.688H384zM426.688 682.688h42.688v42.688h-42.688z" fill="#FDCD00" p-id="9477"></path><path d="M469.312 682.688H512v42.688h-42.688zM512 682.688h42.688v42.688H512zM554.688 682.688h42.688v42.688h-42.688z" fill="#FDCD00" p-id="9478"></path><path d="M597.312 682.688H640v42.688h-42.688z" fill="#FDCD00" p-id="9479"></path><path d="M42.688 725.312h42.688V768H42.688z" fill="#388F39" p-id="9480"></path><path d="M85.312 725.312H128V768h-42.688zM128 725.312h42.688V768H128zM170.688 725.312h42.688V768h-42.688z" fill="#388F39" p-id="9481"></path><path d="M341.312 725.312H384V768h-42.688zM384 725.312h42.688V768H384z" p-id="9482"></path><path d="M426.688 725.312h42.688V768h-42.688z" fill="#388F39" p-id="9483"></path><path d="M469.312 725.312H512V768h-42.688z" fill="#FDCD00" p-id="9484"></path><path d="M42.688 768h42.688v42.688H42.688z" fill="#388F39" p-id="9485"></path><path d="M85.312 768H128v42.688h-42.688zM128 768h42.688v42.688H128z" fill="#388F39" p-id="9486"></path><path d="M384 768h42.688v42.688H384zM426.688 768h42.688v42.688h-42.688z" fill="#FDCD00" p-id="9487"></path><path d="M469.312 768H512v42.688h-42.688z" fill="#388F39" p-id="9488"></path><path d="M512 725.312h42.688V768H512zM512 768h42.688v42.688H512z" fill="#FDCD00" p-id="9489"></path><path d="M42.688 810.688h42.688v42.688H42.688z" fill="#388F39" p-id="9490"></path><path d="M554.688 725.312h42.688V768h-42.688z" fill="#FDCD00" p-id="9491"></path><path d="M426.688 810.688h42.688v42.688h-42.688z" fill="#388F39" p-id="9492"></path><path d="M469.312 810.688H512v42.688h-42.688z" fill="#FDCD00" p-id="9493"></path><path d="M213.312 768H256v42.688h-42.688zM256 768h42.688v42.688H256z" fill="#388F39" p-id="9494"></path><path d="M298.688 768h42.688v42.688h-42.688z" p-id="9495"></path><path d="M170.688 810.688h42.688v42.688h-42.688z" fill="#388F39" p-id="9496"></path><path d="M213.312 810.688H256v42.688h-42.688zM256 810.688h42.688v42.688H256z" p-id="9497"></path><path d="M298.688 810.688h42.688v42.688h-42.688z" fill="#388F39" p-id="9498"></path><path d="M341.312 810.688H384v42.688h-42.688z" fill="#388F39" p-id="9499"></path><path d="M597.312 768H640v42.688h-42.688zM554.688 810.688h42.688v42.688h-42.688z" fill="#FDCD00" p-id="9500"></path><path d="M597.312 810.688H640v42.688h-42.688zM85.312 853.312H128V896h-42.688z" fill="#388F39" p-id="9501"></path><path d="M128 853.312h42.688V896H128zM170.688 853.312h42.688V896h-42.688z" p-id="9502"></path><path d="M213.312 853.312H256V896h-42.688zM256 853.312h42.688V896H256zM298.688 853.312h42.688V896h-42.688z" fill="#388F39" p-id="9503"></path><path d="M341.312 853.312H384V896h-42.688zM384 853.312h42.688V896H384zM512 853.312h42.688V896H512zM554.688 853.312h42.688V896h-42.688z" fill="#388F39" p-id="9504"></path><path d="M597.312 853.312H640V896h-42.688z" fill="#FDCD00" p-id="9505"></path><path d="M42.688 896h42.688v42.688H42.688z" p-id="9506"></path><path d="M85.312 896H128v42.688h-42.688z" p-id="9507"></path><path d="M128 896h42.688v42.688H128zM170.688 896h42.688v42.688h-42.688z" fill="#388F39" p-id="9508"></path><path d="M213.312 896H256v42.688h-42.688zM256 896h42.688v42.688H256zM298.688 896h42.688v42.688h-42.688z" fill="#388F39" p-id="9509"></path><path d="M341.312 896H384v42.688h-42.688zM384 896h42.688v42.688H384zM426.688 896h42.688v42.688h-42.688z" fill="#388F39" p-id="9510"></path><path d="M469.312 896H512v42.688h-42.688z" fill="#FDCD00" p-id="9511"></path><path d="M213.312 938.688H256v42.688h-42.688zM256 938.688h42.688v42.688H256zM298.688 938.688h42.688v42.688h-42.688z" fill="#388F39" p-id="9512"></path><path d="M341.312 938.688H384v42.688h-42.688zM384 938.688h42.688v42.688H384zM426.688 938.688h42.688v42.688h-42.688z" fill="#388F39" p-id="9513"></path><path d="M469.312 938.688H512v42.688h-42.688zM512 896h42.688v42.688H512z" fill="#388F39" p-id="9514"></path><path d="M512 938.688h42.688v42.688H512z" fill="#FDCD00" p-id="9515"></path><path d="M554.688 896h42.688v42.688h-42.688zM554.688 938.688h42.688v42.688h-42.688z" fill="#388F39" p-id="9516"></path><path d="M597.312 896H640v42.688h-42.688z" fill="#FDCD00" p-id="9517"></path><path d="M597.312 938.688H640v42.688h-42.688zM682.688 853.312h42.688V896h-42.688zM682.688 896h42.688v42.688h-42.688z" fill="#388F39" p-id="9518"></path><path d="M682.688 938.688h42.688v42.688h-42.688z" fill="#FDCD00" p-id="9519"></path><path d="M682.688 810.688h42.688v42.688h-42.688zM896 810.688h42.688v42.688H896zM938.688 768h42.688v42.688h-42.688zM938.688 810.688h42.688v42.688h-42.688z" fill="#388F39" p-id="9520"></path><path d="M725.312 853.312H768V896h-42.688zM725.312 896H768v42.688h-42.688zM725.312 938.688H768v42.688h-42.688zM768 896h42.688v42.688H768zM768 938.688h42.688v42.688H768zM810.688 896h42.688v42.688h-42.688z" fill="#388F39" p-id="9521"></path><path d="M853.312 853.312H896V896h-42.688z" p-id="9522"></path><path d="M896 853.312h42.688V896H896zM938.688 853.312h42.688V896h-42.688zM853.312 896H896v42.688h-42.688z" fill="#388F39" p-id="9523"></path><path d="M896 896h42.688v42.688H896zM938.688 896h42.688v42.688h-42.688z" p-id="9524"></path><path d="M512 810.688h42.688v42.688H512zM554.688 768h42.688v42.688h-42.688z" fill="#388F39" p-id="9525"></path><path d="M597.312 725.312H640V768h-42.688z" p-id="9526"></path><path d="M682.688 768h42.688v42.688h-42.688z" fill="#FDCD00" p-id="9527"></path><path d="M725.312 810.688H768v42.688h-42.688zM896 768h42.688v42.688H896zM853.312 810.688H896v42.688h-42.688zM938.688 725.312h42.688V768h-42.688zM42.688 853.312h42.688V896H42.688zM426.688 853.312h42.688V896h-42.688z" fill="#388F39" p-id="9528"></path><path d="M469.312 853.312H512V896h-42.688z" fill="#FDCD00" p-id="9529"></path><path d="M768 853.312h42.688V896H768zM810.688 853.312h42.688V896h-42.688z" fill="#388F39" p-id="9530"></path><path d="M640 554.688h42.688v42.688H640z" p-id="9531"></path><path d="M640 597.312h42.688V640H640z" fill="#FDCD00" p-id="9532"></path><path d="M640 640h42.688v42.688H640z" fill="#388F39" p-id="9533"></path><path d="M640 682.688h42.688v42.688H640z" fill="#FDCD00" p-id="9534"></path><path d="M640 725.312h42.688V768H640z" p-id="9535"></path><path d="M640 768h42.688v42.688H640z" fill="#FDCD00" p-id="9536"></path><path d="M640 810.688h42.688v42.688H640z" fill="#388F39" p-id="9537"></path><path d="M640 853.312h42.688V896H640zM640 896h42.688v42.688H640z" fill="#388F39" p-id="9538"></path><path d="M640 938.688h42.688v42.688H640z" fill="#FDCD00" p-id="9539"></path><path d="M128 469.312h42.688V512H128zM170.688 469.312h42.688V512h-42.688z" fill="#388F39" p-id="9540"></path><path d="M256 469.312h42.688V512H256z" p-id="9541"></path><path d="M128 512h42.688v42.688H128zM170.688 512h42.688v42.688h-42.688zM256 512h42.688v42.688H256z" fill="#388F39" p-id="9542"></path><path d="M341.312 512H384v42.688h-42.688z" p-id="9543"></path><path d="M85.312 554.688H128v42.688h-42.688z" fill="#FDCD00" p-id="9544"></path><path d="M170.688 554.688h42.688v42.688h-42.688zM256 554.688h42.688v42.688H256zM341.312 554.688H384v42.688h-42.688zM85.312 597.312H128V640h-42.688z" fill="#388F39" p-id="9545"></path><path d="M170.688 597.312h42.688V640h-42.688z" fill="#FDCD00" p-id="9546"></path><path d="M256 597.312h42.688V640H256z" fill="#388F39" p-id="9547"></path><path d="M341.312 597.312H384V640h-42.688zM384 597.312h42.688V640H384z" fill="#FDCD00" p-id="9548"></path><path d="M469.312 597.312H512V640h-42.688z" p-id="9549"></path><path d="M341.312 170.688H384v42.688h-42.688zM384 170.688h42.688v42.688H384zM426.688 170.688h42.688v42.688h-42.688z" fill="#FFFFFF" p-id="9550"></path><path d="M469.312 170.688H512v42.688h-42.688zM298.688 213.312h42.688V256h-42.688z" fill="#FFFFFF" p-id="9551"></path><path d="M341.312 213.312H384V256h-42.688zM384 213.312h42.688V256H384z" fill="#FFFFFF" p-id="9552"></path><path d="M426.688 213.312h42.688V256h-42.688z" fill="#E6E6E6" p-id="9553"></path><path d="M469.312 213.312H512V256h-42.688zM256 256h42.688v42.688H256zM298.688 256h42.688v42.688h-42.688z" fill="#FFFFFF" p-id="9554"></path><path d="M341.312 256H384v42.688h-42.688zM384 256h42.688v42.688H384zM426.688 256h42.688v42.688h-42.688z" fill="#FFFFFF" p-id="9555"></path><path d="M469.312 256H512v42.688h-42.688zM256 298.688h42.688v42.688H256z" fill="#FFFFFF" p-id="9556"></path><path d="M298.688 298.688h42.688v42.688h-42.688z" fill="#E6E6E6" p-id="9557"></path><path d="M341.312 298.688H384v42.688h-42.688zM384 298.688h42.688v42.688H384zM426.688 298.688h42.688v42.688h-42.688z" fill="#FFFFFF" p-id="9558"></path><path d="M469.312 298.688H512v42.688h-42.688zM512 170.688h42.688v42.688H512z" fill="#FFFFFF" p-id="9559"></path><path d="M512 213.312h42.688V256H512zM512 256h42.688v42.688H512zM512 298.688h42.688v42.688H512zM554.688 170.688h42.688v42.688h-42.688z" fill="#FFFFFF" p-id="9560"></path><path d="M554.688 213.312h42.688V256h-42.688zM554.688 256h42.688v42.688h-42.688zM554.688 298.688h42.688v42.688h-42.688zM597.312 170.688H640v42.624h-42.688z" fill="#FFFFFF" p-id="9561"></path><path d="M597.312 213.312H640V256h-42.688zM597.312 256H640v42.688h-42.688zM597.312 298.688H640v42.688h-42.688zM640 213.312h42.688V256H640z" fill="#FFFFFF" p-id="9562"></path><path d="M640 256h42.688v42.688H640z" fill="#E6E6E6" p-id="9563"></path><path d="M682.688 213.312h42.624V256h-42.624zM640 170.688h42.688v42.624H640zM426.688 42.688h42.688v42.688h-42.688z" fill="#FFFFFF" p-id="9564"></path><path d="M469.312 42.688H512v42.688h-42.688zM384 85.312h42.688V128H384z" fill="#FFFFFF" p-id="9565"></path><path d="M426.688 85.312h42.688V128h-42.688z" fill="#FFFFFF" p-id="9566"></path><path d="M469.312 85.312H512V128h-42.688zM512 42.688h42.688v42.688H512z" fill="#FFFFFF" p-id="9567"></path><path d="M512 85.312h42.688V128H512zM554.688 42.688h42.688v42.688h-42.688z" fill="#FFFFFF" p-id="9568"></path><path d="M554.688 85.312h42.688V128h-42.688z" fill="#FFFFFF" p-id="9569"></path><path d="M597.312 85.312H640V128h-42.688zM682.688 298.688h42.688v42.688h-42.688zM725.312 256H768v42.688h-42.688z" fill="#FFFFFF" p-id="9570"></path><path d="M725.312 298.688H768v42.688h-42.688zM682.688 384h42.688v42.688h-42.688zM682.688 426.688h42.688v42.688h-42.688z" fill="#FFFFFF" p-id="9571"></path><path d="M682.688 469.312h42.688V512h-42.688z" fill="#FFFFFF" p-id="9572"></path><path d="M725.312 384H768v42.688h-42.688z" fill="#E6E6E6" p-id="9573"></path><path d="M725.312 426.688H768v42.688h-42.688z" fill="#FFFFFF" p-id="9574"></path><path d="M725.312 469.312H768V512h-42.688zM768 384h42.688v42.688H768zM768 426.688h42.688v42.688H768zM810.688 384h42.688v42.688h-42.688zM810.688 426.688h42.688v42.688h-42.688zM213.312 384H256v42.688h-42.688zM256 384h42.688v42.688H256zM298.688 384h42.688v42.688h-42.688z" fill="#FFFFFF" p-id="9575"></path><path d="M341.312 384H384v42.688h-42.688zM384 384h42.688v42.688H384zM426.688 384h42.688v42.688h-42.688z" fill="#FFFFFF" p-id="9576"></path><path d="M469.312 384H512v42.688h-42.688z" fill="#FFFFFF" p-id="9577"></path><path d="M213.312 426.688H256v42.688h-42.688z" p-id="9578"></path><path d="M256 426.688h42.688v42.688H256zM298.688 426.688h42.688v42.688h-42.688z" fill="#FFFFFF" p-id="9579"></path><path d="M341.312 426.688H384v42.688h-42.688z" fill="#FFFFFF" p-id="9580"></path><path d="M384 426.688h42.688v42.688H384z" fill="#E6E6E6" p-id="9581"></path><path d="M426.688 426.688h42.688v42.688h-42.688z" fill="#FFFFFF" p-id="9582"></path><path d="M469.312 426.688H512v42.688h-42.688zM384 469.312h42.688V512H384z" fill="#FFFFFF" p-id="9583"></path><path d="M426.688 469.312h42.688V512h-42.688zM512 384h42.688v42.688H512zM512 426.688h42.688v42.688H512z" fill="#FFFFFF" p-id="9584"></path><path d="M512 469.312h42.688V512H512zM426.688 512h42.688v42.688h-42.688zM554.688 384h42.688v42.688h-42.688zM554.688 426.688h42.688v42.688h-42.688z" fill="#FFFFFF" p-id="9585"></path><path d="M597.312 384H640v42.688h-42.688zM597.312 426.688H640v42.688h-42.688z" fill="#FFFFFF" p-id="9586"></path><path d="M597.312 469.312H640V512h-42.688zM554.688 512h42.688v42.688h-42.688z" fill="#FFFFFF" p-id="9587"></path><path d="M597.312 512H640v42.688h-42.688zM512 554.688h42.688v42.688H512zM341.312 128H384v42.688h-42.688zM384 128h42.688v42.688H384zM426.688 128h42.688v42.688h-42.688z" fill="#FFFFFF" p-id="9588"></path><path d="M469.312 128H512v42.688h-42.688zM213.312 341.312H256V384h-42.688zM256 341.312h42.688V384H256zM298.688 341.312h42.688V384h-42.688z" fill="#FFFFFF" p-id="9589"></path><path d="M341.312 341.312H384V384h-42.688zM384 341.312h42.688V384H384zM426.688 341.312h42.688V384h-42.688z" fill="#FFFFFF" p-id="9590"></path><path d="M469.312 341.312H512V384h-42.688zM512 128h42.688v42.688H512zM512 341.312h42.688V384H512z" fill="#FFFFFF" p-id="9591"></path><path d="M554.688 128h42.688v42.688h-42.688zM554.688 341.312h42.688V384h-42.688z" fill="#E6E6E6" p-id="9592"></path><path d="M597.312 128H640v42.688h-42.688zM597.312 341.312H640V384h-42.688zM640 128h42.688v42.688H640zM640 298.688h42.688v42.688H640z" fill="#FFFFFF" p-id="9593"></path><path d="M640 341.312h42.688V384H640zM640 384h42.688v42.688H640zM640 426.688h42.688v42.688H640z" fill="#FFFFFF" p-id="9594"></path><path d="M640 469.312h42.688V512H640zM640 512h42.688v42.688H640zM682.688 256h42.688v42.688h-42.688zM682.688 341.312h42.688V384h-42.688z" fill="#FFFFFF" p-id="9595"></path><path d="M725.312 341.312H768V384h-42.688zM768 341.312h42.688V384H768zM341.312 469.312H384V512h-42.688zM469.312 469.312H512V512h-42.688zM469.312 512H512v42.688h-42.688zM512 512h42.688v42.688H512zM554.688 469.312h42.688V512h-42.688zM469.312 554.688H512v42.688h-42.688zM554.688 554.688h42.688v42.688h-42.688z" fill="#FFFFFF" p-id="9596"></path><path d="M554.688 597.312h42.688V640h-42.688z" p-id="9597"></path><path d="M213.312 725.312H256V768h-42.688zM256 725.312h42.688V768H256z" fill="#388F39" p-id="9598"></path><path d="M298.688 725.312h42.688V768h-42.688z" fill="#FDCD00" p-id="9599"></path><path d="M170.688 768h42.688v42.688h-42.688z" fill="#388F39" p-id="9600"></path><path d="M341.312 768H384v42.688h-42.688z" fill="#FDCD00" p-id="9601"></path><path d="M85.312 810.688H128v42.688h-42.688zM128 810.688h42.688v42.688H128zM384 810.688h42.688v42.688H384z" fill="#388F39" p-id="9602"></path><path d="M298.688 170.688h42.688v42.688h-42.688zM256 213.312h42.688V256H256zM213.312 256H256v42.688h-42.688zM213.312 298.688H256v42.688h-42.688zM682.688 170.688h42.688v42.624h-42.688zM384 42.688h42.688v42.688H384zM341.312 85.312H384V128h-42.688zM597.312 42.688H640v42.688h-42.688zM640 85.312h42.688V128H640zM768 256h42.688v42.688H768zM768 298.688h42.688v42.688H768zM853.312 384H896v42.688h-42.688zM853.312 426.688H896v42.688h-42.688zM896 469.312h42.688V512H896zM896 512h42.688v42.688H896zM938.688 554.688h42.688v42.688h-42.688z" p-id="9603"></path><path d="M938.688 597.312h42.688V640h-42.688zM938.688 640h42.688v42.688h-42.688zM128 384h42.688v42.688H128zM128 426.688h42.688v42.688H128zM42.688 554.688h42.688v42.688H42.688z" p-id="9604"></path><path d="M42.688 597.312h42.688V640H42.688zM42.688 640h42.688v42.688H42.688zM42.688 938.688h42.688v42.688H42.688z" p-id="9605"></path><path d="M85.312 938.688H128v42.688h-42.688zM128 938.688h42.688v42.688H128zM170.688 938.688h42.688v42.688h-42.688zM810.688 938.688h42.688v42.688h-42.688z" p-id="9606"></path><path d="M853.312 938.688H896v42.688h-42.688zM896 938.688h42.688v42.688H896zM938.688 938.688h42.688v42.688h-42.688zM426.688 0h42.688v42.688h-42.688z" p-id="9607"></path><path d="M469.312 0H512v42.688h-42.688zM298.688 128h42.688v42.688h-42.688zM170.688 341.312h42.688V384h-42.688zM512 0h42.688v42.688H512zM554.688 0h42.688v42.688h-42.688zM682.688 128h42.688v42.688h-42.688zM725.312 213.312H768V256h-42.688zM0 682.688h42.688v42.688H0z" p-id="9608"></path><path d="M0 725.312h42.688V768H0zM0 768h42.688v42.688H0zM0 810.688h42.688v42.688H0zM810.688 341.312h42.688V384h-42.688zM981.312 682.688H1024v42.688h-42.688z" p-id="9609"></path><path d="M981.312 725.312H1024V768h-42.688zM981.312 768H1024v42.688h-42.688zM981.312 810.688H1024v42.688h-42.688zM0 853.312h42.688V896H0zM0 896h42.688v42.688H0zM213.312 981.312H256V1024h-42.688zM256 981.312h42.688V1024H256zM298.688 981.312h42.688V1024h-42.688z" p-id="9610"></path><path d="M341.312 981.312H384V1024h-42.688zM384 981.312h42.688V1024H384zM426.688 981.312h42.688V1024h-42.688z" p-id="9611"></path><path d="M469.312 981.312H512V1024h-42.688zM512 981.312h42.688V1024H512zM554.688 981.312h42.688V1024h-42.688z" p-id="9612"></path><path d="M597.312 981.312H640V1024h-42.688zM640 981.312h42.688V1024H640zM682.688 981.312h42.688V1024h-42.688z" p-id="9613"></path><path d="M725.312 981.312H768V1024h-42.688zM768 981.312h42.688V1024H768zM981.312 853.312H1024V896h-42.688zM981.312 896H1024v42.688h-42.688zM85.312 469.312H128V512h-42.688zM85.312 512H128v42.688h-42.688z" p-id="9614"></path></svg>